<svg id="Layer_1" data-name="Layer 1" xmlns="http://www.w3.org/2000/svg" viewBox="0 0 405.53 443.29"><defs><style>.cls-1{fill:#c4161c;}</style></defs><path class="cls-1" d="M257.17,16.22h-133A51.59,51.59,0,0,0,72.62,67.81v206.3h1C253,213,255.05,44.41,257.17,16.22Z"/><path class="cls-1" d="M81.2,278h209a44.22,44.22,0,0,0,44.22-44.22V16.22h0C291.19,248.05,81.2,278,81.2,278Z"/><path class="cls-1" d="M111.45,384.72H88.7V340.8q0-8,.34-14.64a48.64,48.64,0,0,1-5.22,5.34l-9.42,7.77L62.77,325l28.48-23.21h20.2Z"/><path class="cls-1" d="M161.2,330.36a25.41,25.41,0,0,1,12.91,3.32,23,23,0,0,1,9,9.39,29.67,29.67,0,0,1,3.2,14q0,13.91-8.37,21.33t-25.33,7.44q-14.54,0-23.72-4.49V363A59.7,59.7,0,0,0,140,366.73a47,47,0,0,0,10.7,1.48q6.24,0,9.59-2.64t3.34-7.8a8.89,8.89,0,0,0-3.4-7.43q-3.41-2.67-10.33-2.67a37.18,37.18,0,0,0-11.4,2l-8.23-4.08,3.12-43.81h47.32v18.67H152.46l-1,10.95a50.55,50.55,0,0,1,6.3-.93C159,330.39,160.14,330.36,161.2,330.36Z"/><path class="cls-1" d="M255.79,343.36q0,22-7.38,32.25t-22.58,10.25q-14.88,0-22.42-10.7t-7.54-31.8q0-22.14,7.37-32.46t22.59-10.33q14.8,0,22.38,10.75T255.79,343.36Zm-37.62,0q0,14.07,1.75,19.35c1.18,3.51,3.14,5.27,5.91,5.27s4.77-1.81,5.93-5.44,1.73-10,1.73-19.18-.59-15.64-1.76-19.32-3.14-5.54-5.9-5.54-4.73,1.78-5.91,5.34S218.17,333.9,218.17,343.36Z"/><path class="cls-1" d="M322.81,384.72H262.6V370l20.26-20.49q8.68-9.08,11.35-12.39a27.59,27.59,0,0,0,3.71-5.71,12.24,12.24,0,0,0,1.05-5,6.5,6.5,0,0,0-2.1-5.11,8.54,8.54,0,0,0-5.9-1.87,16.11,16.11,0,0,0-7.91,2.24,56.86,56.86,0,0,0-9.05,6.61l-12.32-14.41a66.65,66.65,0,0,1,10.79-8.2,38.3,38.3,0,0,1,9.5-3.77,46.92,46.92,0,0,1,11.55-1.31,34.82,34.82,0,0,1,14.38,2.84,22.52,22.52,0,0,1,9.82,8.09,20.81,20.81,0,0,1,3.49,11.77,30.21,30.21,0,0,1-5,17.16,55.85,55.85,0,0,1-6.78,8.43q-4.23,4.42-18,16.8v.56h31.38Z"/><path class="cls-1" d="M101.12,426.8H74.8V406.68h5.46v15.66h5V406.68h5.35v15.66h5V406.68h5.48Z"/><path class="cls-1" d="M123.17,426.8H117l-6-10.2v10.2h-5.46V406.68h5.46v9.74l5.75-9.74h6l-6.2,9.6Z"/><path class="cls-1" d="M143.43,416.71c0,3.38-.83,6-2.49,7.72s-4.09,2.64-7.29,2.64-5.58-.89-7.26-2.65-2.52-4.35-2.52-7.74.83-5.9,2.51-7.67,4.1-2.65,7.3-2.65,5.62.88,7.27,2.63S143.43,413.32,143.43,416.71Zm-13.84,0q0,5.84,4.06,5.83a3.51,3.51,0,0,0,3.06-1.41,10.24,10.24,0,0,0,0-8.87,3.44,3.44,0,0,0-3-1.44Q129.58,410.82,129.59,416.71Z"/><path class="cls-1" d="M164.31,426.8h-5.46V411.12H155c-.21,2.29-.49,4.61-.84,7a34,34,0,0,1-1,5,6.8,6.8,0,0,1-1.22,2.28,4.74,4.74,0,0,1-1.82,1.28,8,8,0,0,1-4.76.13v-4.2a4.63,4.63,0,0,0,1.34.28,1.22,1.22,0,0,0,1.1-.6,6.93,6.93,0,0,0,.69-2c.21-1,.51-2.74.88-5.34s.73-5.33,1-8.19h13.89Z"/><path class="cls-1" d="M181.48,426.8l-1-3.77H174l-1,3.77h-6l6.56-20.2h7.25l6.65,20.2Zm-2.12-8.23-.86-3.3c-.2-.74-.45-1.69-.74-2.85s-.48-2-.57-2.51c-.08.47-.25,1.24-.49,2.31s-.78,3.19-1.62,6.35Z"/><path class="cls-1" d="M202.92,410.88a10,10,0,0,0-2.38.34,12.43,12.43,0,0,0-2.52.9l-1.58-4.26a17.17,17.17,0,0,1,3.45-1.12,15.77,15.77,0,0,1,3.22-.32,9.3,9.3,0,0,1,7.11,2.67q2.5,2.69,2.51,7.59c0,3.39-.83,6-2.5,7.74s-4.09,2.65-7.29,2.65a16.86,16.86,0,0,1-6.37-1.14v-4.57a17.75,17.75,0,0,0,6.37,1.27,4.25,4.25,0,0,0,2.88-.91,3.75,3.75,0,0,0,1.16-2.64h-8V414.7h8a4.1,4.1,0,0,0-1.19-2.83A4.05,4.05,0,0,0,202.92,410.88Z"/><path class="cls-1" d="M233.62,426.8h-5.46v-8.21h-6.31v8.21h-5.46V406.68h5.46v7.46h6.31v-7.46h5.46Z"/><path class="cls-1" d="M250,426.8H238.09V406.68H250V411h-6.51v3.17h6v4.36h-6v3.8H250Z"/><path class="cls-1" d="M268.57,413.08a6.76,6.76,0,0,1-2,5.21,8.05,8.05,0,0,1-5.65,1.83h-1.53v6.68H254V406.68h7c2.54,0,4.45.56,5.72,1.66A5.94,5.94,0,0,1,268.57,413.08Zm-9.16,2.61h1a2.7,2.7,0,0,0,2-.69,2.48,2.48,0,0,0,.72-1.89q0-2-2.25-2h-1.41Z"/><path class="cls-1" d="M285.14,406.68v4.39h-7.95V426.8h-5.46V406.68Z"/><path class="cls-1" d="M288.14,406.68H293v8.64c0,.92-.07,2.75-.22,5.5h.11l8-14.14h6.72V426.8h-4.82v-8.42c0-1.28.08-3.19.25-5.73h-.11l-8.09,14.15h-6.7Z"/><path class="cls-1" d="M320.27,419.48l-4,7.32h-6.16l5.51-8.8a6.08,6.08,0,0,1-2.33-2.25,6,6,0,0,1-.82-3.13q0-5.94,8.2-5.94h6.68V426.8h-5.44v-7.32Zm1.66-8.69h-1.15a3.47,3.47,0,0,0-2,.53,1.76,1.76,0,0,0-.75,1.55,2.41,2.41,0,0,0,.71,1.89,3.27,3.27,0,0,0,2.22.63h1Z"/></svg>